<svg width="40" height="40" viewBox="0 0 40 40" fill="none" xmlns="http://www.w3.org/2000/svg">
<path d="M20.0001 10.8334C20.0001 9.62957 19.763 8.43757 19.3023 7.32542C18.8416 6.21327 18.1664 5.20274 17.3152 4.35154C16.464 3.50034 15.4535 2.82513 14.3413 2.36446C13.2292 1.90379 12.0372 1.66669 10.8334 1.66669C9.62963 1.66669 8.43763 1.90379 7.32548 2.36446C6.21333 2.82513 5.20281 3.50034 4.3516 4.35154C3.5004 5.20274 2.82519 6.21327 2.36452 7.32542C1.90385 8.43757 1.66675 9.62957 1.66675 10.8334C1.66675 13.2645 2.63252 15.5961 4.3516 17.3152C6.07069 19.0342 8.40226 20 10.8334 20C13.2646 20 15.5961 19.0342 17.3152 17.3152C19.0343 15.5961 20.0001 13.2645 20.0001 10.8334V10.8334ZM6.66675 5.83335V6.75169C7.49148 5.90956 8.55199 5.33703 9.70854 5.10954C10.8651 4.88205 12.0634 5.01027 13.1457 5.47731C14.2279 5.94434 15.1433 6.72828 15.7712 7.72584C16.3991 8.7234 16.71 9.88777 16.6631 11.0656C16.6161 12.2433 16.2135 13.3793 15.5082 14.3237C14.8029 15.2681 13.828 15.9767 12.712 16.3561C11.596 16.7355 10.3913 16.7679 9.25651 16.4491C8.12173 16.1303 7.11016 15.4751 6.35508 14.57C5.91675 14.045 6.35175 13.3334 7.03508 13.3334C7.32841 13.3334 7.60008 13.475 7.80175 13.6884C8.38777 14.3105 9.15094 14.7374 9.98779 14.9112C10.8246 15.0849 11.6947 14.9971 12.4799 14.6596C13.2652 14.3222 13.9277 13.7514 14.3776 13.0247C14.8274 12.298 15.043 11.4505 14.9949 10.5971C14.9468 9.7438 14.6375 8.92588 14.1088 8.25429C13.5802 7.5827 12.8578 7.08994 12.0396 6.84281C11.2214 6.59567 10.347 6.60613 9.53496 6.87277C8.72292 7.1394 8.01252 7.64931 7.50008 8.33335H9.16675C9.38776 8.33335 9.59972 8.42115 9.756 8.57743C9.91228 8.73371 10.0001 8.94567 10.0001 9.16669C10.0001 9.3877 9.91228 9.59966 9.756 9.75594C9.59972 9.91222 9.38776 10 9.16675 10H5.83341C5.6124 10 5.40044 9.91222 5.24416 9.75594C5.08788 9.59966 5.00008 9.3877 5.00008 9.16669V5.83335C5.00008 5.61234 5.08788 5.40038 5.24416 5.2441C5.40044 5.08782 5.6124 5.00002 5.83341 5.00002C6.05443 5.00002 6.26639 5.08782 6.42267 5.2441C6.57895 5.40038 6.66675 5.61234 6.66675 5.83335V5.83335ZM31.2501 9.16669H21.5401C21.4075 8.308 21.1713 7.46854 20.8367 6.66669H31.2501C31.9614 6.66669 32.6658 6.80679 33.3229 7.07901C33.9801 7.35122 34.5773 7.75021 35.0802 8.25319C35.5832 8.75618 35.9822 9.3533 36.2544 10.0105C36.5266 10.6677 36.6667 11.372 36.6667 12.0834V31.25C36.6667 31.9613 36.5266 32.6657 36.2544 33.3229C35.9822 33.9801 35.5832 34.5772 35.0802 35.0802C34.5773 35.5832 33.9801 35.9822 33.3229 36.2544C32.6658 36.5266 31.9614 36.6667 31.2501 36.6667H12.0834C11.3721 36.6667 10.6677 36.5266 10.0105 36.2544C9.35337 35.9822 8.75624 35.5832 8.25325 35.0802C7.75027 34.5772 7.35128 33.9801 7.07907 33.3229C6.80685 32.6657 6.66675 31.9613 6.66675 31.25V20.8367C7.45675 21.1667 8.29508 21.4034 9.16675 21.54V31.25C9.16675 31.5967 9.22675 31.93 9.33841 32.24L19.0434 22.7384C19.7087 22.0871 20.5925 21.7065 21.5228 21.6708C22.4531 21.6351 23.3635 21.9467 24.0767 22.545L24.2901 22.7384L33.9934 32.2417C34.1051 31.9317 34.1667 31.5984 34.1667 31.25V12.0834C34.1667 11.3098 33.8595 10.5679 33.3125 10.021C32.7655 9.47398 32.0236 9.16669 31.2501 9.16669ZM32.2167 34.0017L22.5417 24.525C22.3307 24.3182 22.0532 24.1928 21.7584 24.1711C21.4637 24.1494 21.1708 24.2329 20.9317 24.4067L20.7917 24.5234L11.1134 34.0017C11.4167 34.1084 11.7434 34.1667 12.0834 34.1667H31.2501C31.5884 34.1667 31.9151 34.1084 32.2167 34.0017ZM27.0884 12.5C28.0839 12.5 29.0385 12.8955 29.7424 13.5993C30.4463 14.3032 30.8417 15.2579 30.8417 16.2534C30.8417 17.2488 30.4463 18.2035 29.7424 18.9074C29.0385 19.6112 28.0839 20.0067 27.0884 20.0067C26.093 20.0067 25.1383 19.6112 24.4344 18.9074C23.7305 18.2035 23.3351 17.2488 23.3351 16.2534C23.3351 15.2579 23.7305 14.3032 24.4344 13.5993C25.1383 12.8955 26.093 12.5 27.0884 12.5V12.5ZM27.0884 15C26.9238 15 26.7608 15.0324 26.6088 15.0954C26.4567 15.1584 26.3186 15.2507 26.2022 15.3671C26.0858 15.4835 25.9935 15.6217 25.9305 15.7737C25.8675 15.9258 25.8351 16.0888 25.8351 16.2534C25.8351 16.4179 25.8675 16.5809 25.9305 16.733C25.9935 16.885 26.0858 17.0232 26.2022 17.1396C26.3186 17.256 26.4567 17.3483 26.6088 17.4113C26.7608 17.4743 26.9238 17.5067 27.0884 17.5067C27.4208 17.5067 27.7396 17.3746 27.9747 17.1396C28.2097 16.9045 28.3417 16.5858 28.3417 16.2534C28.3417 15.9209 28.2097 15.6022 27.9747 15.3671C27.7396 15.1321 27.4208 15 27.0884 15V15Z" fill="white"/>
</svg>
