<svg width="9" height="37" viewBox="0 0 9 37" fill="none" xmlns="http://www.w3.org/2000/svg">
<path d="M4.402 14C3.82392 14 3.2515 14.1139 2.71743 14.3351C2.18335 14.5563 1.69808 14.8806 1.28932 15.2893C0.880553 15.6981 0.556304 16.1834 0.335083 16.7174C0.113861 17.2515 4.55203e-07 17.8239 4.55203e-07 18.402C4.55203e-07 18.9801 0.113861 19.5525 0.335083 20.0866C0.556304 20.6206 0.880553 21.1059 1.28932 21.5147C1.69808 21.9234 2.18335 22.2477 2.71743 22.4689C3.2515 22.6901 3.82392 22.804 4.402 22.804C5.56948 22.8037 6.68904 22.3397 7.51439 21.514C8.33974 20.6883 8.80326 19.5685 8.803 18.401C8.80273 17.2335 8.3387 16.114 7.51298 15.2886C6.68725 14.4633 5.56748 13.9997 4.4 14H4.402ZM4.402 8.8C4.97982 8.79974 5.55192 8.68567 6.08566 8.4643C6.61939 8.24294 7.10429 7.91862 7.51268 7.50986C7.92108 7.10109 8.24496 6.61589 8.46584 6.08196C8.68671 5.54803 8.80026 4.97582 8.8 4.398C8.79974 3.82018 8.68567 3.24808 8.4643 2.71435C8.24294 2.18061 7.91862 1.69571 7.50986 1.28732C7.10109 0.878924 6.61589 0.555043 6.08196 0.334165C5.54803 0.113287 4.97582 -0.000262189 4.398 4.54587e-07C3.23105 0.000530905 2.1121 0.46461 1.28732 1.29014C0.462531 2.11568 -0.000529978 3.23505 4.55203e-07 4.402C0.000530888 5.56895 0.464609 6.6879 1.29014 7.51268C2.11568 8.33747 3.23505 8.80053 4.402 8.8ZM4.402 28C3.23452 28 2.11485 28.4638 1.28932 29.2893C0.463782 30.1149 4.55203e-07 31.2345 4.55203e-07 32.402C4.55203e-07 33.5695 0.463782 34.6892 1.28932 35.5147C2.11485 36.3402 3.23452 36.804 4.402 36.804C5.56948 36.804 6.68915 36.3402 7.51468 35.5147C8.34022 34.6892 8.804 33.5695 8.804 32.402C8.804 31.2345 8.34022 30.1149 7.51468 29.2893C6.68915 28.4638 5.56948 28 4.402 28Z" fill="#9747FF"/>
</svg>
