<svg width="30" height="30" viewBox="0 0 30 30" fill="none" xmlns="http://www.w3.org/2000/svg">
<path d="M7.22999 27C6.17193 27 5.15606 26.5469 4.34642 25.7084C2.55126 23.8449 2.55126 20.814 4.34601 18.9517L18.3438 3.57147C20.5278 1.30806 23.8732 1.51144 26.3146 4.04078C27.4085 5.1747 28.0224 6.80941 27.9994 8.52764C27.9763 10.2277 27.3344 11.8548 26.2373 12.9919L15.6583 24.6451C15.3638 24.9716 14.8701 24.9865 14.5558 24.6802C14.2422 24.3735 14.227 23.8619 14.5226 23.5366L25.1177 11.8657C25.9464 11.0065 26.4218 9.78785 26.4394 8.50502C26.4569 7.22141 26.0088 6.0112 25.2116 5.18436C23.7141 3.63157 21.2758 2.81846 19.4631 4.69851L5.46564 20.0787C4.26211 21.3272 4.2625 23.3324 5.45004 24.5643C6.00694 25.141 6.66798 25.4218 7.37193 25.3778C8.06846 25.3338 8.7845 24.9642 9.38822 24.3379L20.5258 12.0722C20.9294 11.6537 21.7406 10.6279 20.915 9.77165C20.4474 9.28701 20.119 9.31687 20.011 9.32616C19.7025 9.3544 19.3421 9.57514 18.9681 9.96333L10.5851 19.1885C10.2891 19.5141 9.79498 19.5299 9.48257 19.2228C9.16862 18.9169 9.15419 18.4044 9.44942 18.08L17.8477 8.83748C18.508 8.15107 19.183 7.77902 19.8702 7.71526C20.4065 7.666 21.204 7.78426 22.0175 8.62845C23.225 9.88018 23.0748 11.7163 21.6451 13.1988L10.5075 25.4638C9.61834 26.387 8.54465 26.9233 7.46748 26.9919C7.38831 26.9976 7.30914 27 7.22997 27L7.22999 27Z" fill="#9747FF"/>
</svg>
